<svg xmlns="http://www.w3.org/2000/svg" viewBox="0 0 140.08 51.39"><defs><style>.cls-1{fill:#017333;}</style></defs><g id="Capa_2" data-name="Capa 2"><g id="Capa_1-2" data-name="Capa 1"><path class="cls-1" d="M11.51,3.2l3-1.41-.09.77L14.3,4q-.06.57-.12.9l-.35,2.35s0,.27-.12.76A53.79,53.79,0,0,1,18.58,3.7,23.68,23.68,0,0,1,23,.91,8.61,8.61,0,0,1,26.58,0a3.43,3.43,0,0,1,2.75,1.18,4.81,4.81,0,0,1,1,3.23,11.13,11.13,0,0,1-1.57,5.21,28.42,28.42,0,0,1-4.48,6,35.64,35.64,0,0,1-5.73,5.06l1.06-.06a7.32,7.32,0,0,1,5.2,1.88,6.35,6.35,0,0,1,2,4.87,11.4,11.4,0,0,1-1.74,5.91,15.91,15.91,0,0,1-4.79,5,13.59,13.59,0,0,1-7.87,2.32q-3.77,0-5.32-1.47L8.57,37.2a7.36,7.36,0,0,0,2.35,1.63,7.06,7.06,0,0,0,2.91.63,8.38,8.38,0,0,0,4.92-1.6,11.56,11.56,0,0,0,3.64-4.26,12.19,12.19,0,0,0,1.37-5.69,7.17,7.17,0,0,0-.69-3.27,5.07,5.07,0,0,0-1.95-2.12,5.72,5.72,0,0,0-3-.75,8.36,8.36,0,0,0-2,.29l.29-1.43a26.94,26.94,0,0,0,5.12-3.87,28.17,28.17,0,0,0,4.2-5,11.51,11.51,0,0,0,2.26-6.23,4,4,0,0,0-.9-2.73,3,3,0,0,0-2.36-1C23,1.82,20.75,3,18,5.26a31.41,31.41,0,0,0-4.52,4.49l-.09.53c-.31,2.14-.76,4.45-1.34,7s-1.27,5.12-2.08,7.88-1.62,5.25-2.43,7.5a25.76,25.76,0,0,1-2.73,5.83c-.88,1.27-1.75,1.9-2.61,1.9-1.34,0-2-1.12-2-3.35A26.23,26.23,0,0,1,1,31.25a49.19,49.19,0,0,1,2.11-6.72,43.56,43.56,0,0,1,7.46-12.84c.18-1.15.35-2.52.53-4.11C11.29,5.66,11.43,4.2,11.51,3.2ZM10.28,13.49A38.26,38.26,0,0,0,6,20.16a49,49,0,0,0-3.31,8c-.5,1.64-.92,3.27-1.24,4.87A19.83,19.83,0,0,0,1,36.76c0,1.23.3,1.85.91,1.85.43,0,.84-.33,1.24-.93a19.73,19.73,0,0,0,1.47-3.1q.46-1.17,1.08-3c.41-1.19.79-2.34,1.13-3.45s.72-2.4,1.12-3.89.7-2.65.9-3.47Q9.86,16.42,10.28,13.49Z"/><path class="cls-1" d="M29.4,31.44a17.85,17.85,0,0,0,3.38-5.7A4.14,4.14,0,0,1,30.4,22,3.07,3.07,0,0,1,31,20a1.7,1.7,0,0,1,1.41-.74,1.68,1.68,0,0,1,1.44.81,3.64,3.64,0,0,1,.56,2.1,7.19,7.19,0,0,1-.33,2,5.64,5.64,0,0,0,1.44.2,4.32,4.32,0,0,0,3-1.05h1.41l-.2.41a56.18,56.18,0,0,0-3.49,7.62A18.38,18.38,0,0,0,34.84,37a1.81,1.81,0,0,0,.35,1.13,1,1,0,0,0,.85.46c.8,0,2.1-.86,3.88-2.56l.47.53a20.48,20.48,0,0,1-2.56,2.26,4.8,4.8,0,0,1-2.9,1.24,2.26,2.26,0,0,1-1.81-.77,3.07,3.07,0,0,1-.66-2.08,13.27,13.27,0,0,1,1.7-5.59q.62-1.26,1.59-2.88c.64-1.07,1.46-2.36,2.44-3.84l.29-.42a6.52,6.52,0,0,1-1.86,1.25,5.28,5.28,0,0,1-2,.37A4.47,4.47,0,0,1,33.46,26a18.25,18.25,0,0,1-3.53,5.94Zm4-7.47a9,9,0,0,0,.11-1.23,3.3,3.3,0,0,0-.33-1.61,1,1,0,0,0-.87-.59.61.61,0,0,0-.51.28,1,1,0,0,0-.22.69C31.61,22.43,32.21,23.25,33.43,24Z"/><path class="cls-1" d="M48.29,22.59l-2.58,9.67a15.51,15.51,0,0,0-.65,3.82,3.22,3.22,0,0,0,.32,1.53,1,1,0,0,0,.86.59c.6,0,1.57-.73,2.91-2.18l.47.41-.3.33a27,27,0,0,1-2.47,2.65,2.29,2.29,0,0,1-1.47.69,1.83,1.83,0,0,1-1.54-.92,4,4,0,0,1-.63-2.31,18,18,0,0,1,.35-2.79L45.41,23.8Zm.86-11.51a1.63,1.63,0,0,1,1.23.47,1.8,1.8,0,0,1,0,2.46,1.6,1.6,0,0,1-1.2.5A1.67,1.67,0,0,1,47.94,14a1.7,1.7,0,0,1-.53-1.21,1.64,1.64,0,0,1,.5-1.2A1.67,1.67,0,0,1,49.15,11.08Z"/><path class="cls-1" d="M63.42,35.37a14.55,14.55,0,0,1-3.48,3.69,6.39,6.39,0,0,1-3.74,1.16,4.75,4.75,0,0,1-3.69-1.58,5.94,5.94,0,0,1-1.43-4.12,11.73,11.73,0,0,1,1.39-5.37A14,14,0,0,1,56,24.62a6.63,6.63,0,0,1,4.15-1.79,3.12,3.12,0,0,1,2.18.75,2.58,2.58,0,0,1,.82,2,3.4,3.4,0,0,1-.87,2.19,2.42,2.42,0,0,1-1.86,1,1.09,1.09,0,0,1-.8-.35,3.15,3.15,0,0,0,1.91-3.17A1.81,1.81,0,0,0,61.12,24,1.5,1.5,0,0,0,60,23.56a3.54,3.54,0,0,0-2.19.88,9.27,9.27,0,0,0-2.07,2.46,14.48,14.48,0,0,0-1.52,3.35,12.27,12.27,0,0,0-.54,3.6,5.62,5.62,0,0,0,1,3.52,3.23,3.23,0,0,0,2.7,1.35,4.9,4.9,0,0,0,2.79-.91A12.66,12.66,0,0,0,63,35Z"/><path class="cls-1" d="M82,22.42,79.26,33.17a12.48,12.48,0,0,0-.44,2.76,3,3,0,0,0,.38,1.53,1.11,1.11,0,0,0,.94.65c.57,0,1.51-.7,2.82-2.09l.41.41-.32.38a27.77,27.77,0,0,1-2.39,2.52,2.44,2.44,0,0,1-1.46.72,2,2,0,0,1-1.63-1,3.85,3.85,0,0,1-.69-2.28,28.48,28.48,0,0,1,.71-4.26l.23-1.11a21.6,21.6,0,0,1-2.91,4.85q-3,3.87-5.84,3.87a3.23,3.23,0,0,1-2.65-1.2,5,5,0,0,1-1-3.23A12.68,12.68,0,0,1,67,29.91a15.94,15.94,0,0,1,3.91-5A7.19,7.19,0,0,1,75.47,23a3.89,3.89,0,0,1,3.47,1.7l.32-1.12Zm-3.38,3.76a3.34,3.34,0,0,0-1.19-1.75,3.1,3.1,0,0,0-1.92-.63A4.41,4.41,0,0,0,72.8,25a11.86,11.86,0,0,0-2.65,3.3A19.8,19.8,0,0,0,68.58,32,11.72,11.72,0,0,0,68,35.35a4.21,4.21,0,0,0,.57,2.35,1.87,1.87,0,0,0,1.63.85A4.39,4.39,0,0,0,73,37.28a15.1,15.1,0,0,0,2.91-3.61A13.27,13.27,0,0,0,77.26,31a38,38,0,0,0,1.12-3.76Z"/><path class="cls-1" d="M101.59,22.42,98.83,33.17a11.91,11.91,0,0,0-.44,2.76,2.9,2.9,0,0,0,.38,1.53,1.1,1.1,0,0,0,.94.65c.57,0,1.51-.7,2.82-2.09l.41.41-.32.38a26.21,26.21,0,0,1-2.4,2.52,2.39,2.39,0,0,1-1.45.72,2,2,0,0,1-1.63-1,3.85,3.85,0,0,1-.69-2.28,27.93,27.93,0,0,1,.7-4.26l.24-1.11a22.37,22.37,0,0,1-2.91,4.85q-3.06,3.87-5.85,3.87A3.21,3.21,0,0,1,86,38.93a5,5,0,0,1-1-3.23,12.56,12.56,0,0,1,1.57-5.79,15.94,15.94,0,0,1,3.91-5A7.19,7.19,0,0,1,95,23a3.88,3.88,0,0,1,3.46,1.7l.33-1.12Zm-3.38,3.76A3.34,3.34,0,0,0,97,24.43a3.12,3.12,0,0,0-1.92-.63A4.41,4.41,0,0,0,92.36,25a11.66,11.66,0,0,0-2.64,3.3A19.16,19.16,0,0,0,88.15,32a11.72,11.72,0,0,0-.63,3.35,4.21,4.21,0,0,0,.57,2.35,1.86,1.86,0,0,0,1.63.85,4.39,4.39,0,0,0,2.82-1.27,15.1,15.1,0,0,0,2.91-3.61A13.27,13.27,0,0,0,96.83,31c.33-.9.71-2.16,1.12-3.76Z"/><path class="cls-1" d="M102,50.21l1.44-1.94a5.15,5.15,0,0,0,3.85,1.82,4.35,4.35,0,0,0,3.64-1.79,15.16,15.16,0,0,0,2.27-5.87l1.35-6.09q-3.24,3.79-5.85,3.79a3.06,3.06,0,0,1-2.39-.94,3.54,3.54,0,0,1-.87-2.52,11.76,11.76,0,0,1,.26-2.32l2-10.55,2.85-1.21-2.85,11.85a10.28,10.28,0,0,0-.35,2.14,2.26,2.26,0,0,0,.6,1.63,2.12,2.12,0,0,0,1.6.63,4.24,4.24,0,0,0,2.4-1A17.91,17.91,0,0,0,114.84,35l2.53-11.22,2.76-1.21-4.29,17.28a40.53,40.53,0,0,1-1.46,4.88,11.93,11.93,0,0,1-1.6,2.94,8.64,8.64,0,0,1-7,3.7A5.64,5.64,0,0,1,102,50.21Z"/><path class="cls-1" d="M138.73,22.42,136,33.17a12.48,12.48,0,0,0-.44,2.76,2.9,2.9,0,0,0,.39,1.53,1.09,1.09,0,0,0,.94.65c.56,0,1.5-.7,2.82-2.09l.41.41-.33.38a25.2,25.2,0,0,1-2.39,2.52,2.41,2.41,0,0,1-1.45.72,2,2,0,0,1-1.63-1,3.85,3.85,0,0,1-.7-2.28,28.48,28.48,0,0,1,.71-4.26l.24-1.11a22.37,22.37,0,0,1-2.91,4.85q-3.06,3.87-5.85,3.87a3.2,3.2,0,0,1-2.64-1.2,5,5,0,0,1-1-3.23,12.56,12.56,0,0,1,1.57-5.79,15.94,15.94,0,0,1,3.91-5A7.16,7.16,0,0,1,132.17,23a3.88,3.88,0,0,1,3.47,1.7l.32-1.12Zm-3.38,3.76a3.4,3.4,0,0,0-1.19-1.75,3.12,3.12,0,0,0-1.93-.63A4.41,4.41,0,0,0,129.5,25a11.66,11.66,0,0,0-2.64,3.3A19.16,19.16,0,0,0,125.29,32a11.44,11.44,0,0,0-.64,3.35,4.13,4.13,0,0,0,.58,2.35,1.86,1.86,0,0,0,1.63.85,4.39,4.39,0,0,0,2.82-1.27,15.1,15.1,0,0,0,2.91-3.61A14.37,14.37,0,0,0,134,31c.33-.9.7-2.16,1.11-3.76Z"/><path class="cls-1" d="M.14,49.22a2.11,2.11,0,0,0,1,.28c.58,0,.91-.3.91-.74s-.23-.65-.82-.87S.09,47.26.09,46.64a1.27,1.27,0,0,1,1.42-1.19,2,2,0,0,1,1,.22l-.16.46a1.72,1.72,0,0,0-.83-.21c-.6,0-.83.36-.83.66s.27.61.87.84,1.12.65,1.12,1.29S2.15,50,1.12,50A2.23,2.23,0,0,1,0,49.69Z"/><path class="cls-1" d="M7.09,49.91l0-.4H7a1.15,1.15,0,0,1-1,.47.89.89,0,0,1-1-.91c0-.76.68-1.17,1.89-1.17v-.06a.65.65,0,0,0-.71-.73,1.49,1.49,0,0,0-.82.24L5.33,47a1.92,1.92,0,0,1,1-.28c1,0,1.2.66,1.2,1.29v1.17a4.4,4.4,0,0,0,.05.76ZM7,48.3c-.62,0-1.33.1-1.33.71a.51.51,0,0,0,.54.55A.78.78,0,0,0,7,49a.57.57,0,0,0,0-.18Z"/><path class="cls-1" d="M10.38,49.91c0-.22,0-.54,0-.82v-3.8H11v2h0a1.17,1.17,0,0,1,1.07-.58,1.42,1.42,0,0,1,1.33,1.6A1.5,1.5,0,0,1,12,50a1.12,1.12,0,0,1-1.05-.59h0l0,.52ZM11,48.65a1.23,1.23,0,0,0,0,.2.88.88,0,0,0,.86.67c.6,0,1-.48,1-1.21s-.33-1.17-.94-1.17a.92.92,0,0,0-.87.71,1.29,1.29,0,0,0,0,.23Z"/><path class="cls-1" d="M18.87,48.31A1.54,1.54,0,0,1,17.3,50a1.5,1.5,0,0,1-1.51-1.62,1.54,1.54,0,0,1,1.56-1.67A1.49,1.49,0,0,1,18.87,48.31Zm-2.5,0c0,.69.4,1.21,1,1.21s1-.51,1-1.22c0-.54-.26-1.21-.94-1.21S16.37,47.74,16.37,48.34Z"/><path class="cls-1" d="M21.51,47.74c0-.37,0-.69,0-1H22l0,.62h0a1,1,0,0,1,.87-.69l.17,0v.54l-.2,0a.8.8,0,0,0-.77.73,2.13,2.13,0,0,0,0,.27v1.68h-.57Z"/><path class="cls-1" d="M28.86,47.79c0-.4,0-.73,0-1h.51l0,.54h0a1.26,1.26,0,0,1,1.12-.61,1.42,1.42,0,0,1,1.33,1.6A1.49,1.49,0,0,1,30.4,50a1.1,1.1,0,0,1-1-.5h0v1.71h-.56Zm.56.84a.85.85,0,0,0,0,.23.87.87,0,0,0,.85.67c.61,0,1-.49,1-1.22s-.33-1.17-.94-1.17a.91.91,0,0,0-.86.71.93.93,0,0,0,0,.24Z"/><path class="cls-1" d="M36.22,49.91l0-.4h0a1.15,1.15,0,0,1-1,.47.89.89,0,0,1-1-.91c0-.76.67-1.17,1.89-1.17v-.06a.65.65,0,0,0-.71-.73,1.49,1.49,0,0,0-.82.24L34.46,47a1.92,1.92,0,0,1,1-.28c1,0,1.2.66,1.2,1.29v1.17a4.4,4.4,0,0,0,.05.76Zm-.09-1.61c-.62,0-1.33.1-1.33.71a.51.51,0,0,0,.54.55A.78.78,0,0,0,36.1,49a.57.57,0,0,0,0-.18Z"/><path class="cls-1" d="M39.53,47.74c0-.37,0-.69,0-1H40l0,.62h0a1,1,0,0,1,.87-.69l.16,0v.54l-.19,0a.8.8,0,0,0-.77.73,2.13,2.13,0,0,0,0,.27v1.68h-.57Z"/><path class="cls-1" d="M45.29,49.91l0-.4h0a1.17,1.17,0,0,1-1,.47.89.89,0,0,1-1-.91c0-.76.67-1.17,1.89-1.17v-.06a.65.65,0,0,0-.72-.73,1.54,1.54,0,0,0-.82.24L43.52,47a2,2,0,0,1,1-.28c1,0,1.19.66,1.19,1.29v1.17a4.34,4.34,0,0,0,.06.76ZM45.2,48.3c-.62,0-1.33.1-1.33.71a.51.51,0,0,0,.54.55.78.78,0,0,0,.76-.53.57.57,0,0,0,0-.18Z"/><path class="cls-1" d="M54.14,49.79a2.08,2.08,0,0,1-.9.18,1.49,1.49,0,0,1-1.57-1.6,1.6,1.6,0,0,1,1.69-1.67,1.84,1.84,0,0,1,.79.16L54,47.3a1.28,1.28,0,0,0-.66-.15,1.19,1.19,0,0,0,0,2.37,1.64,1.64,0,0,0,.7-.16Z"/><path class="cls-1" d="M59.54,48.31A1.54,1.54,0,0,1,58,50a1.5,1.5,0,0,1-1.51-1.62A1.54,1.54,0,0,1,58,46.69,1.49,1.49,0,0,1,59.54,48.31Zm-2.5,0c0,.69.4,1.21,1,1.21s1-.51,1-1.22c0-.54-.26-1.21-.94-1.21S57,47.74,57,48.34Z"/><path class="cls-1" d="M62.18,47.61c0-.32,0-.59,0-.85h.51l0,.51h0a1.09,1.09,0,0,1,1-.58.93.93,0,0,1,.89.63h0a1.31,1.31,0,0,1,.35-.41,1.1,1.1,0,0,1,.7-.22c.41,0,1,.27,1,1.36v1.86h-.56V48.13c0-.61-.22-1-.68-1a.75.75,0,0,0-.68.52,1.18,1.18,0,0,0,0,.28v1.95h-.56V48c0-.5-.22-.86-.66-.86a.77.77,0,0,0-.7.57.64.64,0,0,0,0,.28v1.9h-.56Z"/><path class="cls-1" d="M69.53,47.79c0-.4,0-.73,0-1H70l0,.54h0a1.26,1.26,0,0,1,1.12-.61,1.42,1.42,0,0,1,1.33,1.6A1.49,1.49,0,0,1,71.07,50a1.1,1.1,0,0,1-1-.5h0v1.71h-.56Zm.56.84a.85.85,0,0,0,0,.23.87.87,0,0,0,.85.67c.61,0,1-.49,1-1.22s-.33-1.17-.94-1.17a.91.91,0,0,0-.86.71.93.93,0,0,0,0,.24Z"/><path class="cls-1" d="M76.89,49.91l0-.4h0a1.15,1.15,0,0,1-1,.47.89.89,0,0,1-1-.91c0-.76.67-1.17,1.89-1.17v-.06a.65.65,0,0,0-.71-.73,1.49,1.49,0,0,0-.82.24L75.13,47a1.92,1.92,0,0,1,1-.28c1,0,1.2.66,1.2,1.29v1.17a4.4,4.4,0,0,0,0,.76ZM76.8,48.3c-.62,0-1.33.1-1.33.71a.51.51,0,0,0,.54.55.78.78,0,0,0,.76-.53.57.57,0,0,0,0-.18Z"/><path class="cls-1" d="M80.2,47.74c0-.37,0-.69,0-1h.5l0,.62h0a1,1,0,0,1,.87-.69l.16,0v.54l-.19,0a.8.8,0,0,0-.77.73,2.13,2.13,0,0,0,0,.27v1.68H80.2Z"/><path class="cls-1" d="M85.09,45.86v.9h.82v.44h-.82v1.69c0,.39.11.61.43.61a1.22,1.22,0,0,0,.33,0l0,.43a1.32,1.32,0,0,1-.51.08.78.78,0,0,1-.62-.24,1.18,1.18,0,0,1-.22-.82V47.2H84v-.44h.49V46Z"/><path class="cls-1" d="M89.11,45.88a.36.36,0,0,1-.71,0,.35.35,0,0,1,.36-.36A.34.34,0,0,1,89.11,45.88Zm-.64,4V46.76h.58v3.15Z"/><path class="cls-1" d="M91.92,47.74c0-.37,0-.69,0-1h.5l0,.62h0a1,1,0,0,1,.88-.69l.16,0v.54l-.2,0a.79.79,0,0,0-.76.73,1.12,1.12,0,0,0,0,.27v1.68h-.56Z"/><path class="cls-1" d="M95.85,49.58a.39.39,0,1,1,.38.4A.38.38,0,0,1,95.85,49.58Zm.16-.93-.09-3.12h.63l-.09,3.12Z"/></g></g></svg>